<svg xmlns="http://www.w3.org/2000/svg" viewBox="0 0 4200 700">
  <rect width="4200" height="700" fill="#181A18"/>
  <g transform="translate(1200 150) scale(4)">
    <path fill="#F60D10" d="M48 10L88 50L48 90L38 80L68 50L38 20Z"/>
    <path fill="#FFFFFF" d="M15 63L32 46L26 40L48 40L48 62L42 56L25 73Z"/>
    <path fill="#FFFFFF" d="M 107.69141,70.5 V 29.757812 h 15.88672 q 6.94531,0 10.74609,3.636719 3.82812,3.609375 3.82812,9.625 0,4.183594 -1.85937,7.164063 -1.85938,2.953125 -5.35938,4.429687 L 139.60156,70.5 h -9.24219 l -7.76562,-14.546875 h -6.5625 V 70.5 Z m 8.33984,-21.300781 h 6.01563 q 7.49218,0 7.49218,-6.179688 0,-3.089844 -1.85937,-4.730469 -1.83203,-1.640625 -5.66016,-1.640625 h -5.98828 z m 40.25109,21.902343 q -4.67578,0 -8.0664,-1.914062 -3.39063,-1.914063 -5.22266,-5.441406 -1.80469,-3.527344 -1.80469,-8.367188 0,-4.730469 1.80469,-8.285156 1.83203,-3.554688 5.11328,-5.550781 3.3086,-1.996094 7.76563,-1.996094 3.99219,0 7.24609,1.695312 3.25391,1.695313 5.16797,5.140625 1.94141,3.445313 1.94141,8.667969 v 2.296875 h -20.91797 q 0.13672,3.746094 2.07812,5.660156 1.94141,1.914063 5.03125,1.914063 2.16016,0 3.69141,-0.902344 1.55859,-0.929687 2.21484,-2.707031 l 7.4375,1.394531 q -1.12109,3.800781 -4.64843,6.097656 -3.5,2.296875 -8.83204,2.296875 z m -6.91796,-18.894531 h 12.96093 q -0.30078,-2.980469 -1.91406,-4.730469 -1.61328,-1.75 -4.45703,-1.75 -2.95313,0 -4.64844,1.832032 -1.69531,1.804687 -1.9414,4.648437 z M 182.91625,29.757812 V 70.5 h -8.20312 V 29.757812 Z m 16.38,41.125 q -4.75781,0 -7.65625,-3.0625 -2.87109,-3.0625 -2.87109,-8.449218 V 39.929687 h 8.20312 v 18.019532 q 0,2.84375 1.47656,4.457031 1.47657,1.613281 4.04688,1.613281 2.625,0 4.26562,-1.667969 1.66797,-1.695312 1.66797,-4.730468 V 39.929687 h 8.23047 V 70.5 h -7.76562 l -0.10938,-6.34375 q -1.28516,3.253906 -3.66406,5.003906 -2.35156,1.722656 -5.82422,1.722656 z M 220.16062,70.5 l 9.84375,-15.695313 -9.24219,-14.875 h 8.85938 l 2.76172,4.8125 q 0.82031,1.53125 1.53125,3.035157 0.73828,1.476562 1.42187,2.925781 0.6836,-1.449219 1.39453,-2.953125 0.73829,-1.503906 1.61329,-3.007813 l 2.87109,-4.8125 h 8.69531 L 240.47703,54.914062 250.34812,70.5 h -8.80469 l -3.39062,-5.769531 q -0.84766,-1.476563 -1.58594,-2.953125 -0.73828,-1.476563 -1.42187,-2.898438 -0.65625,1.421875 -1.36719,2.898438 -0.68359,1.476562 -1.53125,2.953125 L 228.85593,70.5 Z m 53.635,0 -10.9375,-40.742188 h 9.10547 l 4.73047,20.042969 q 0.62891,2.816406 1.14844,6.015625 0.54687,3.199219 1.03906,6.34375 0.54688,-3.144531 1.1211,-6.34375 0.57421,-3.199219 1.25781,-6.015625 l 4.97656,-20.042969 h 8.66797 l 4.94922,20.042969 q 0.68359,2.789063 1.25781,5.960938 0.57422,3.171875 1.12109,6.289062 0.49219,-3.117187 1.01172,-6.289062 0.54688,-3.171875 1.17578,-5.960938 l 4.73047,-20.042969 h 9.13282 L 307.31906,70.5 h -9.51562 l -5.41407,-20.835938 q -0.54687,-2.214843 -0.98437,-4.648437 -0.4375,-2.460938 -0.875,-5.085938 -0.38281,2.542969 -0.79297,5.003907 -0.41016,2.433593 -1.01172,4.730468 L 283.33859,70.5 Z m 59.09095,0.601562 q -4.59375,0 -7.95704,-1.96875 -3.36328,-1.996093 -5.19531,-5.523437 -1.80469,-3.554688 -1.80469,-8.257813 0,-4.730468 1.80469,-8.285156 1.83203,-3.554687 5.19531,-5.523437 3.36329,-1.996094 7.95704,-1.996094 4.59375,0 7.95703,1.996094 3.36328,1.96875 5.16797,5.523437 1.83203,3.554688 1.83203,8.285156 0,4.703125 -1.83203,8.257813 -1.80469,3.527344 -5.16797,5.523437 -3.36328,1.96875 -7.95703,1.96875 z m 0,-6.453125 q 3.28125,0 4.94921,-2.652343 1.66797,-2.652344 1.66797,-6.671875 0,-4.046875 -1.66797,-6.671875 Q 336.16782,46 332.88657,46 q -3.28125,0 -4.94922,2.652344 -1.64063,2.625 -1.64063,6.671875 0,4.019531 1.64063,6.671875 1.66797,2.652343 4.94922,2.652343 z M 352.43843,70.5 V 39.929687 h 7.92969 v 5.332032 h 0.32812 q 0.84766,-2.816407 2.81641,-4.265625 1.99609,-1.476563 4.56641,-1.476563 1.39453,0 2.65234,0.273438 v 7.328125 q -0.54688,-0.164063 -1.61328,-0.273438 -1.03906,-0.136719 -1.94141,-0.136719 -2.84375,0 -4.70312,1.777344 -1.83203,1.777344 -1.83203,4.621094 V 70.5 Z m 22.55971,0 V 29.757812 h 8.20312 V 51.6875 h 0.46485 l 10.00781,-11.757813 h 9.48828 L 391.73251,53.191406 403.73642,70.5 h -9.65234 l -8.53125,-12.46875 -2.35157,2.652344 V 70.5 Z m 43.50497,0.601562 q -5.52343,0 -9.13281,-2.351562 -3.58203,-2.351563 -4.375,-6.617188 l 7.62891,-1.3125 q 1.17578,4.265625 6.125,4.265625 2.35156,0 3.6914,-0.875 1.36719,-0.902343 1.36719,-2.269531 0,-2.324219 -3.9375,-3.144531 l -5.27734,-1.09375 q -8.80469,-1.804688 -8.80469,-8.667969 0,-4.402344 3.52734,-6.945312 3.52735,-2.542969 9.32422,-2.542969 5.44141,0 8.66797,2.214844 3.22656,2.214843 4.07422,5.933593 l -7.27344,1.285157 q -0.49219,-1.558594 -1.80469,-2.542969 -1.3125,-1.011719 -3.55468,-1.011719 -2.02344,0 -3.39063,0.875 -1.36719,0.847656 -1.36719,2.214844 0,1.148437 0.875,1.96875 0.90235,0.792969 3.0625,1.230469 l 5.4961,1.09375 q 8.75,1.777343 8.75,8.257812 0,3.007813 -1.75,5.277344 -1.75,2.242187 -4.83985,3.5 -3.08984,1.257812 -7.08203,1.257812 z"/>
  </g>
</svg>
